<svg width="32" height="32" viewBox="0 0 32 32" fill="none" xmlns="http://www.w3.org/2000/svg">
<path d="M12 13.3333H2.66665C2.31302 13.3333 1.97388 13.1929 1.72384 12.9428C1.47379 12.6928 1.33331 12.3536 1.33331 12V2.66668C1.33331 2.31305 1.47379 1.97392 1.72384 1.72387C1.97388 1.47382 2.31302 1.33334 2.66665 1.33334H12C12.3536 1.33334 12.6927 1.47382 12.9428 1.72387C13.1928 1.97392 13.3333 2.31305 13.3333 2.66668V12C13.3333 12.3536 13.1928 12.6928 12.9428 12.9428C12.6927 13.1929 12.3536 13.3333 12 13.3333Z" fill="#8C30F5"/>
<path d="M12 30.6667H2.66665C2.31302 30.6667 1.97388 30.5262 1.72384 30.2762C1.47379 30.0261 1.33331 29.687 1.33331 29.3334V20C1.33331 19.6464 1.47379 19.3073 1.72384 19.0572C1.97388 18.8072 2.31302 18.6667 2.66665 18.6667H12C12.3536 18.6667 12.6927 18.8072 12.9428 19.0572C13.1928 19.3073 13.3333 19.6464 13.3333 20V29.3334C13.3333 29.687 13.1928 30.0261 12.9428 30.2762C12.6927 30.5262 12.3536 30.6667 12 30.6667Z" fill="#8C30F5"/>
<path d="M17.3333 2.66669H30.6666V5.33335H17.3333V2.66669Z" fill="#2EC5CE"/>
<path d="M30.6666 20H17.3333V22.6667H30.6666V20Z" fill="#2EC5CE"/>
<path d="M30.6666 26.6667H17.3333V29.3334H30.6666V26.6667Z" fill="#D6B1FF"/>
<path d="M30.6666 9.33334H17.3333V12H30.6666V9.33334Z" fill="#D6B1FF"/>
</svg>
